# xmcd
#
# Track frame offsets:
#	150
#	13323
#	31543
#	47114
#	67934
#	82869
#	101962
#	115442
#	132071
#	148383
#	165349
#	178834
#	196567
#	215315
#	235994
#
# Disc length: 3327 seconds
#
# Revision: 1
# Processed by: cddbd v1.5.2PL0 Copyright (c) Steve Scherf et al.
# Submitted via: audiograbber 1.83.01
#
DISCID=c80cfd0f
DTITLE=Various Artist - CB-E8-08
DYEAR=1900
DGENRE=Karaoke
TTITLE0=Billy Currington - Why, Why, Why
TTITLE1=Craig Morgan - Little Bit Of Life
TTITLE2=Carrie Underwood - Before He Cheats
TTITLE3=Keith Anderson - Every Time I Hear Your Name
TTITLE4=Miranda Lambert - Crazy Ex-Girlfriend
TTITLE5=Brad Paisley - World, The
TTITLE6=Ashley Monroe - Satisfied
TTITLE7=George Strait - Give It Away
TTITLE8=Sugarland - Settlin'
TTITLE9=Billy Currington - Good Directions
TTITLE10=Blaine Larsen - Spoken Like A Man
TTITLE11=Kellie Pickler - Red High Heels
TTITLE12=Dierks Bentley - Every Mile A Memory
TTITLE13=Brooks and Dunn - Building Bridges
TTITLE14=Sugarland - Down In Mississippi (Up To No Good)
EXTD=
EXTT0=
EXTT1=
EXTT2=
EXTT3=
EXTT4=
EXTT5=
EXTT6=
EXTT7=
EXTT8=
EXTT9=
EXTT10=
EXTT11=
EXTT12=
EXTT13=
EXTT14=
PLAYORDER=
